<svg xmlns="http://www.w3.org/2000/svg" width="229" height="89" viewBox="0 0 229 89" fill="none"><path d="M84.5457 88.252V87.1611H86.753C87.2888 87.1611 87.7609 87.0782 88.1692 86.906C88.5902 86.7273 88.9475 86.4849 89.2346 86.1787C89.5344 85.8725 89.7577 85.5152 89.9108 85.1006C90.0639 84.6859 90.1404 84.2457 90.1404 83.7673C90.1404 83.2633 90.0639 82.8168 89.9108 82.4085C89.7577 81.9938 89.528 81.643 89.2346 81.3431C88.9411 81.0369 88.5902 80.8009 88.1692 80.6414C87.7545 80.4819 87.2825 80.399 86.753 80.399H84.5457V79.3081H86.6318C87.4292 79.3081 88.1245 79.4357 88.7178 79.6845C89.3111 79.9269 89.7959 80.2586 90.1851 80.6797C90.5806 81.0943 90.8741 81.5537 91.0718 82.0768C91.2632 82.5871 91.3653 83.1038 91.3653 83.6397V83.9076C91.3653 84.4244 91.2696 84.9411 91.0718 85.4578C90.8804 85.9746 90.5806 86.4403 90.1851 86.8613C89.7959 87.2823 89.3111 87.6204 88.7178 87.882C88.1309 88.1308 87.4356 88.2584 86.6318 88.2584H84.5457V88.252ZM83.6016 88.252V79.3081H84.7881V88.252H83.6016ZM94.6698 88.201V79.3528H95.8563V88.201H94.6698ZM102.784 88.4179C102.051 88.4179 101.426 88.2967 100.909 88.0542C100.392 87.8118 99.9966 87.4737 99.7223 87.0463C99.4479 86.6189 99.3076 86.134 99.3076 85.5918H100.494C100.494 85.8597 100.564 86.1277 100.698 86.3892C100.845 86.6572 101.081 86.8804 101.413 87.0591C101.751 87.2377 102.21 87.327 102.784 87.327C103.32 87.327 103.754 87.2504 104.092 87.0973C104.43 86.9378 104.685 86.7273 104.845 86.4785C105.004 86.217 105.087 85.9427 105.087 85.6428C105.087 85.2792 104.928 84.9794 104.615 84.7433C104.303 84.5009 103.837 84.3542 103.231 84.2968L102.248 84.2139C101.464 84.1501 100.839 83.9076 100.367 83.4866C99.9009 83.0656 99.6648 82.5106 99.6648 81.828C99.6648 81.2857 99.7924 80.8136 100.054 80.4117C100.322 80.0098 100.686 79.6909 101.158 79.4676C101.63 79.2316 102.172 79.1167 102.797 79.1167C103.422 79.1167 103.952 79.2316 104.424 79.4548C104.896 79.6781 105.253 80.0035 105.515 80.4117C105.783 80.8136 105.917 81.2985 105.917 81.8662H104.73C104.73 81.5856 104.66 81.3176 104.526 81.0688C104.398 80.82 104.188 80.6095 103.907 80.45C103.626 80.2905 103.256 80.2076 102.804 80.2076C102.351 80.2076 102.006 80.2842 101.713 80.4373C101.432 80.5904 101.215 80.7945 101.068 81.0433C100.934 81.2857 100.864 81.5473 100.864 81.8343C100.864 82.1597 100.992 82.4468 101.241 82.6956C101.489 82.9444 101.859 83.0911 102.357 83.1294L103.339 83.2123C103.945 83.2633 104.469 83.3909 104.902 83.6014C105.349 83.8056 105.687 84.0799 105.923 84.4244C106.165 84.7625 106.287 85.1708 106.287 85.6492C106.287 86.1915 106.14 86.6699 105.853 87.091C105.559 87.512 105.151 87.8373 104.628 88.0734C104.105 88.3094 103.492 88.4242 102.797 88.4242L102.784 88.4179ZM109.719 88.201V79.3017H110.905V88.201H109.719ZM115.186 88.201L112.251 84.2585H113.642L116.621 88.201H115.179H115.186ZM110.459 84.9985V83.9459H112.832C113.202 83.9459 113.521 83.8694 113.789 83.7163C114.057 83.5632 114.261 83.3526 114.408 83.0847C114.554 82.8104 114.624 82.4978 114.624 82.1533C114.624 81.8088 114.554 81.4962 114.408 81.2347C114.261 80.9604 114.057 80.7435 113.789 80.5904C113.521 80.4309 113.202 80.3479 112.832 80.3479H110.459V79.3081H112.615C113.259 79.3081 113.827 79.4038 114.312 79.6016C114.797 79.7993 115.173 80.0928 115.441 80.5011C115.709 80.903 115.843 81.4261 115.843 82.064V82.2554C115.843 82.8933 115.703 83.4164 115.428 83.8183C115.16 84.2202 114.784 84.5201 114.299 84.7178C113.821 84.9092 113.259 85.0113 112.615 85.0113H110.459V84.9985ZM123.115 88.4179C122.318 88.4179 121.642 88.2648 121.093 87.9586C120.551 87.646 120.143 87.2058 119.856 86.6508C119.581 86.083 119.441 85.4323 119.441 84.6859V79.3528H120.627V84.8327C120.627 85.3239 120.723 85.764 120.908 86.1404C121.1 86.5104 121.387 86.8039 121.757 87.0144C122.127 87.2249 122.58 87.327 123.115 87.327C123.651 87.327 124.098 87.2249 124.461 87.0208C124.831 86.8103 125.112 86.5168 125.297 86.1468C125.489 85.764 125.591 85.3239 125.591 84.8263V79.3464H126.777V84.6796C126.777 85.4259 126.643 86.0766 126.363 86.6444C126.088 87.1994 125.68 87.6396 125.138 87.9522C124.595 88.2584 123.919 88.4115 123.115 88.4115V88.4179ZM131.581 85.1197V84.0799H133.558C133.98 84.0799 134.324 83.997 134.598 83.8375C134.873 83.6652 135.077 83.4419 135.217 83.1613C135.364 82.8806 135.434 82.5616 135.434 82.2171C135.434 81.8726 135.364 81.5409 135.217 81.2602C135.083 80.9795 134.873 80.7562 134.598 80.5967C134.324 80.4373 133.973 80.3543 133.558 80.3543H131.581V79.3145H133.342C134.069 79.3145 134.675 79.4293 135.16 79.6654C135.651 79.8886 136.027 80.214 136.276 80.635C136.525 81.0561 136.652 81.5537 136.652 82.1278V82.3192C136.652 82.8869 136.525 83.3845 136.276 83.812C136.027 84.233 135.657 84.5583 135.16 84.7944C134.675 85.0177 134.069 85.1325 133.342 85.1325H131.581V85.1197ZM130.63 88.201V79.3017H131.817V88.201H130.63ZM141.539 88.201V80.1757H142.726V88.201H141.539ZM138.847 80.4181V79.3528H145.418V80.4181H138.847ZM148.493 88.201V79.3528H149.679V88.201H148.493ZM153.736 88.201V79.3528H155.676L160.173 87.1356H160.562L160.32 87.3525V79.3528H161.462V88.201H159.497L155 80.4181H154.61L154.853 80.2012V88.201H153.736ZM169.423 88.4179C168.734 88.4179 168.116 88.303 167.554 88.0798C166.999 87.8565 166.514 87.5375 166.112 87.1229C165.717 86.7082 165.411 86.2234 165.194 85.6683C164.977 85.1006 164.868 84.4882 164.868 83.8247V83.5568C164.868 82.989 164.964 82.4468 165.162 81.9237C165.366 81.3878 165.653 80.9157 166.023 80.4947C166.406 80.0673 166.865 79.7291 167.407 79.4867C167.95 79.2379 168.556 79.1104 169.238 79.1104C169.972 79.1104 170.629 79.2507 171.203 79.5378C171.777 79.8121 172.237 80.2012 172.588 80.6988C172.932 81.19 173.136 81.7642 173.194 82.4212H171.981C171.924 81.93 171.765 81.5218 171.497 81.1964C171.229 80.8647 170.897 80.6159 170.501 80.4564C170.112 80.2842 169.691 80.2012 169.238 80.2012C168.785 80.2012 168.352 80.2842 167.962 80.4564C167.573 80.6159 167.242 80.8519 166.955 81.1581C166.68 81.4643 166.463 81.8343 166.31 82.2618C166.157 82.6892 166.081 83.1676 166.081 83.7035C166.081 84.3095 166.164 84.8454 166.323 85.3047C166.495 85.7577 166.725 86.134 167.025 86.4466C167.325 86.7465 167.675 86.9698 168.077 87.1229C168.492 87.276 168.939 87.3525 169.423 87.3525C170.112 87.3525 170.712 87.2122 171.229 86.9378C171.752 86.6572 172.147 86.2935 172.415 85.847L171.981 87.2887V84.6604H173.098V86.772C172.702 87.2887 172.192 87.6906 171.573 87.9841C170.948 88.2775 170.234 88.4179 169.43 88.4179H169.423ZM169.111 84.9028V83.9076H173.851V84.9028H169.111ZM182.935 88.201V80.1757H184.121V88.201H182.935ZM180.243 80.4181V79.3528H186.814V80.4181H180.243ZM189.863 88.201V79.3528H191.049V88.201H189.863ZM190.813 88.201V87.1356H195.107V88.201H190.813ZM190.813 84.2394V83.174H194.73V84.2394H190.813ZM190.813 80.4181V79.3528H194.986V80.4181H190.813ZM202.36 88.4179C201.55 88.4179 200.861 88.2775 200.287 87.9968C199.719 87.7161 199.266 87.3461 198.915 86.8932C198.571 86.4403 198.316 85.949 198.15 85.4259C197.99 84.8901 197.907 84.3797 197.907 83.8885V83.6206C197.907 83.0847 197.99 82.5552 198.15 82.0194C198.322 81.4835 198.577 80.9986 198.928 80.5648C199.279 80.1311 199.725 79.7738 200.287 79.5123C200.848 79.2507 201.512 79.1104 202.284 79.1104C203.055 79.1104 203.757 79.2443 204.319 79.525C204.886 79.7993 205.333 80.1821 205.665 80.6797C205.996 81.1709 206.201 81.7514 206.271 82.4276H205.059C204.995 81.9237 204.835 81.5154 204.574 81.19C204.319 80.8583 203.987 80.6095 203.591 80.45C203.202 80.2905 202.768 80.2076 202.284 80.2076C201.76 80.2076 201.301 80.2969 200.899 80.4883C200.504 80.6669 200.172 80.9221 199.904 81.2538C199.649 81.5792 199.451 81.9556 199.311 82.383C199.183 82.8104 199.119 83.2761 199.119 83.7737C199.119 84.2713 199.183 84.7051 199.311 85.1325C199.451 85.5599 199.649 85.9427 199.917 86.2744C200.191 86.6061 200.529 86.8677 200.938 87.0654C201.339 87.2504 201.818 87.3461 202.354 87.3461C203.113 87.3461 203.751 87.1547 204.268 86.7784C204.784 86.3956 205.097 85.847 205.212 85.1325H206.424C206.341 85.7385 206.137 86.2935 205.805 86.7911C205.48 87.2951 205.027 87.6906 204.446 87.9904C203.872 88.2903 203.177 88.437 202.347 88.437L202.36 88.4179ZM215.597 88.201V79.3528H216.784V88.201H215.597ZM209.607 88.201V79.3528H210.794V88.201H209.607ZM210.551 84.3351V83.2697H215.833V84.3351H210.551Z" fill="#100D25"></path><mask id="mask0_2001_10153" style="mask-type:luminance" maskUnits="userSpaceOnUse" x="0" y="0" width="62" height="77"><path d="M61.5355 0H0V76.5526H61.5355V0Z" fill="white"></path></mask><g mask="url(#mask0_2001_10153)"><path d="M20.4067 64.9292L-0.109375 76.7694V12.0569L20.4003 0.216797V64.9292H20.4067Z" fill="url(#paint0_linear_2001_10153)"></path><path d="M20.4067 64.9292L-0.109375 76.7694V12.0569L20.4003 0.216797V64.9292H20.4067Z" fill="url(#paint1_linear_2001_10153)" fill-opacity="0.3"></path><path d="M61.4261 64.9292L40.91 76.7694L-0.109375 12.0569L20.4003 0.216797L61.4261 64.9292Z" fill="url(#paint2_linear_2001_10153)"></path><path d="M61.4261 64.9292L40.91 76.7694L-0.109375 12.0569L20.4003 0.216797L61.4261 64.9292Z" fill="url(#paint3_linear_2001_10153)" fill-opacity="0.2"></path><path d="M61.4262 64.9292L40.9102 76.7694V12.0569L61.4262 0.216797V64.9292Z" fill="#217BEE"></path></g><path d="M194.641 53.2288C191.426 55.9974 188.032 57.1585 184.728 57.1585C178.922 57.1585 173.385 53.586 169.455 48.3167L193.927 32.9551C193.927 22.8629 186.514 18.2188 178.208 18.2188C167.937 18.2188 156.416 25.453 156.416 38.5817C156.416 54.5685 166.955 63.4103 177.761 63.4103C184.103 63.4103 190.622 60.2844 195.088 53.586L194.641 53.2288ZM163.472 31.1689C163.472 24.9171 166.865 21.7912 171.063 21.7912C176.243 21.7912 182.763 26.5247 185.71 35.7238L168.294 46.6198C165.347 42.0649 163.472 36.5276 163.472 31.1689Z" fill="#100D25"></path><path d="M210.859 33.0446C213.27 25.2745 219.879 18.5762 228.096 18.5762V28.0432C217.378 27.418 210.859 31.0798 210.859 40.0109V62.5173H200.588V20.7196L210.68 18.5762H210.859V33.0446Z" fill="#100D25"></path><path d="M154.202 54.7471L155.006 55.283C151.612 61.0882 146.79 63.4996 142.413 63.4996C136.43 63.4996 131.16 59.0341 131.16 52.2464V10.538L141.252 2.5H141.431V19.2012H153.309V21.1661H141.431V50.1922C141.431 55.8189 144.021 59.2127 147.326 59.2127C149.469 59.2127 151.97 57.7837 154.202 54.7471Z" fill="#100D25"></path><path d="M93.2923 28.5789C97.0434 21.434 102.938 18.2188 108.565 18.2188C116.513 18.2188 123.926 24.5599 123.926 34.8307V62.5172H113.655V36.7955C113.655 27.3285 109.368 22.6843 104.456 22.6843C100.527 22.6843 96.0609 25.8102 93.2923 31.8834V62.5172H83.0215V20.7195L93.1137 18.576H93.2923V28.5789Z" fill="#100D25"></path><defs><linearGradient id="paint0_linear_2001_10153" x1="10.1487" y1="68.406" x2="10.1487" y2="10.3728" gradientUnits="userSpaceOnUse"><stop offset="0.25" stop-color="#EC683E"></stop><stop offset="1" stop-color="#D13B5F"></stop></linearGradient><linearGradient id="paint1_linear_2001_10153" x1="10.1487" y1="48.9553" x2="10.1487" y2="0.216797" gradientUnits="userSpaceOnUse"><stop stop-opacity="0"></stop><stop offset="1"></stop></linearGradient><linearGradient id="paint2_linear_2001_10153" x1="9.34487" y1="7.41912" x2="51.9527" y2="69.5351" gradientUnits="userSpaceOnUse"><stop offset="0.25" stop-color="#D13B5F"></stop><stop offset="1" stop-color="#217BEE"></stop></linearGradient><linearGradient id="paint3_linear_2001_10153" x1="29.4335" y1="36.5665" x2="50.9703" y2="70.4538" gradientUnits="userSpaceOnUse"><stop stop-opacity="0"></stop><stop offset="1"></stop></linearGradient></defs></svg>